<svg width="314" height="19" viewBox="0 0 314 19" fill="none" xmlns="http://www.w3.org/2000/svg">
<path d="M106.124 14L107.168 11.012H113.468L114.548 14H116.15L111.416 1.31H109.256L104.522 14H106.124ZM110.354 2.642L113.072 9.842H107.618L110.354 2.642ZM119.428 12.434C120.202 13.622 121.498 14.36 123.064 14.36C125.764 14.36 127.744 12.29 127.744 9.464C127.744 6.62 125.782 4.55 123.064 4.55C121.516 4.55 120.238 5.27 119.464 6.44V0.77H118.096V14H119.428V12.434ZM126.376 9.464C126.376 11.552 124.9 13.028 122.902 13.028C120.886 13.028 119.428 11.516 119.428 9.464C119.428 7.394 120.886 5.882 122.902 5.882C124.918 5.882 126.376 7.394 126.376 9.464ZM139.264 9.464C139.264 6.584 137.248 4.55 134.404 4.55C131.56 4.55 129.562 6.584 129.562 9.464C129.562 12.326 131.56 14.36 134.404 14.36C137.248 14.36 139.264 12.326 139.264 9.464ZM137.878 9.464C137.878 11.57 136.42 13.118 134.404 13.118C132.388 13.118 130.93 11.57 130.93 9.464C130.93 7.34 132.388 5.81 134.404 5.81C136.42 5.81 137.878 7.34 137.878 9.464ZM145.144 14.36C146.404 14.36 147.646 13.73 148.258 12.722V14H149.626V4.91H148.258V10.238C148.258 11.894 146.89 13.118 145.306 13.118C143.686 13.118 142.768 11.948 142.768 10.346V4.91H141.4V10.346C141.4 12.668 142.822 14.36 145.144 14.36ZM153.253 11.75C153.253 13.316 154.189 14.36 155.683 14.36C156.133 14.36 156.709 14.27 157.123 14.144V13.01C156.781 13.118 156.313 13.19 156.025 13.19C155.161 13.172 154.621 12.578 154.621 11.696V6.044H156.979V4.91H154.621V2.786H153.505L153.307 4.91H151.759V6.044H153.253V11.75Z" fill="#0F001A"/>
<path d="M10.206 14H11.7V1.31H10.206V6.728H3.186V1.31H1.692V14H3.186V8.06H10.206V14ZM23.9965 9.464C23.9965 6.584 21.9805 4.55 19.1365 4.55C16.2925 4.55 14.2945 6.584 14.2945 9.464C14.2945 12.326 16.2925 14.36 19.1365 14.36C21.9805 14.36 23.9965 12.326 23.9965 9.464ZM22.6105 9.464C22.6105 11.57 21.1525 13.118 19.1365 13.118C17.1205 13.118 15.6625 11.57 15.6625 9.464C15.6625 7.34 17.1205 5.81 19.1365 5.81C21.1525 5.81 22.6105 7.34 22.6105 9.464ZM27.6806 8.546C27.6806 6.908 28.7066 5.81 30.2186 5.81C31.6766 5.81 32.6306 6.908 32.6306 8.546V14H33.9986V8.546C33.9986 6.944 35.0426 5.81 36.5546 5.81C37.9586 5.81 38.9666 6.944 38.9666 8.546V14H40.3526V8.564C40.3526 6.224 38.8406 4.568 36.7166 4.568C35.2766 4.568 34.1426 5.306 33.5666 6.458C33.0626 5.306 31.8386 4.55 30.3446 4.55C29.1746 4.55 28.2206 5.108 27.6446 6.044V4.91H26.3126V14H27.6806V8.546ZM47.3138 13.118C45.5138 13.118 44.1278 11.804 43.9118 9.896L52.0838 9.914C52.1018 9.716 52.1018 9.536 52.1018 9.374C52.1018 6.584 50.1038 4.55 47.3318 4.55C44.5238 4.55 42.5078 6.584 42.5078 9.356C42.5078 12.254 44.5598 14.36 47.4038 14.36C49.2938 14.36 51.0938 13.262 51.6698 11.75L50.4458 11.3C49.9958 12.326 48.6818 13.118 47.3138 13.118ZM43.9478 8.708C44.1998 6.998 45.5138 5.81 47.2778 5.81C49.0778 5.81 50.4098 6.998 50.6618 8.726L43.9478 8.708Z" fill="#0F001A"/>
<path d="M220.754 9.572C220.268 11.318 218.576 12.578 216.704 12.578C214.076 12.578 212.186 10.508 212.186 7.628C212.186 4.748 214.058 2.678 216.704 2.678C218.612 2.678 220.304 3.992 220.736 5.792L222.806 5.54C222.23 2.804 219.656 0.805999 216.686 0.805999C212.816 0.805999 210.026 3.668 210.026 7.628C210.008 11.588 212.816 14.45 216.686 14.45C219.656 14.45 222.23 12.542 222.806 9.914L220.754 9.572ZM234.618 9.428C234.618 6.53 232.566 4.496 229.65 4.496C226.716 4.496 224.682 6.53 224.682 9.428C224.682 12.326 226.716 14.36 229.65 14.36C232.566 14.36 234.618 12.326 234.618 9.428ZM232.674 9.428C232.674 11.282 231.396 12.632 229.65 12.632C227.886 12.632 226.626 11.282 226.626 9.428C226.626 7.574 227.886 6.224 229.65 6.224C231.396 6.224 232.674 7.574 232.674 9.428ZM241.665 4.496C240.477 4.496 239.343 5.072 238.695 6.026V4.856H236.769V14H238.731V8.744C238.731 7.286 239.865 6.224 241.233 6.224C242.601 6.224 243.411 7.214 243.411 8.564V14H245.355V8.42C245.355 6.152 243.897 4.496 241.665 4.496ZM248.565 11.426C248.565 13.172 249.627 14.36 251.265 14.36C251.769 14.36 252.417 14.27 252.867 14.108L252.885 12.542C252.543 12.65 252.111 12.704 251.859 12.704C251.013 12.704 250.509 12.128 250.509 11.3V6.386H252.759V4.856H250.509V2.642H248.925L248.673 4.856H247.161V6.386H248.565V11.426ZM262.61 6.224C261.836 5.144 260.63 4.496 259.208 4.496C256.526 4.496 254.618 6.566 254.618 9.428C254.618 12.29 256.526 14.36 259.208 14.36C260.63 14.36 261.836 13.712 262.61 12.632V14H264.572V4.856H262.61V6.224ZM259.586 12.632C257.84 12.632 256.562 11.264 256.562 9.428C256.562 7.574 257.84 6.224 259.586 6.224C261.332 6.224 262.592 7.574 262.592 9.428C262.592 11.282 261.332 12.632 259.586 12.632ZM276.107 7.97C275.783 5.954 273.875 4.496 271.553 4.496C268.763 4.496 266.729 6.566 266.729 9.428C266.729 12.29 268.763 14.36 271.571 14.36C273.821 14.36 275.747 12.902 276.125 10.904L274.253 10.67C273.929 11.84 272.867 12.704 271.571 12.704C269.933 12.704 268.673 11.318 268.673 9.428C268.673 7.538 269.951 6.152 271.571 6.152C272.831 6.152 273.947 7.016 274.253 8.204L276.107 7.97ZM279.08 11.426C279.08 13.172 280.142 14.36 281.78 14.36C282.284 14.36 282.932 14.27 283.382 14.108L283.4 12.542C283.058 12.65 282.626 12.704 282.374 12.704C281.528 12.704 281.024 12.128 281.024 11.3V6.386H283.274V4.856H281.024V2.642H279.44L279.188 4.856H277.676V6.386H279.08V11.426ZM300.012 8.762C300.012 10.976 298.698 12.578 296.772 12.578C294.792 12.56 293.514 10.742 293.514 8.762V1.256H291.354V8.798C291.354 12.092 293.604 14.45 296.772 14.45C299.922 14.45 302.172 12.092 302.172 8.798V1.256H300.012V8.762ZM308.805 14.378C311.127 14.378 312.783 13.064 312.783 11.282C312.765 7.898 306.609 9.356 306.627 7.358C306.627 6.62 307.455 6.08 308.445 6.08C309.759 6.08 310.713 6.71 310.731 7.61H312.549C312.549 5.792 310.821 4.478 308.463 4.478C306.393 4.478 304.791 5.702 304.791 7.376C304.791 11.138 310.893 9.392 310.911 11.444C310.911 12.218 310.029 12.794 308.805 12.794C307.437 12.794 306.447 12.002 306.447 10.904H304.647C304.647 12.92 306.393 14.378 308.805 14.378Z" fill="#4A99D3"/>
</svg>
